
<svg xmlns="http://www.w3.org/2000/svg" xmlns:xlink="http://www.w3.org/1999/xlink" width="26pt" height="26pt" viewBox="0 0 26 26" version="1.1">
<path style=" stroke:none;fill-rule:nonzero;fill:#FFFFFF;fill-opacity:1;" d="M 12.804688 0.183594 C 5.835938 0.183594 0.183594 5.835938 0.183594 12.804688 C 0.183594 19.769531 5.835938 25.421875 12.804688 25.421875 C 19.769531 25.421875 25.421875 19.769531 25.421875 12.804688 C 25.421875 5.835938 19.769531 0.183594 12.804688 0.183594 Z M 18.496094 17.132813 L 17.128906 18.496094 C 16.878906 18.746094 16.46875 18.746094 16.21875 18.496094 L 12.804688 15.082031 L 9.386719 18.496094 C 9.136719 18.746094 8.730469 18.746094 8.480469 18.492188 L 7.109375 17.132813 C 6.863281 16.878906 6.863281 16.472656 7.109375 16.21875 L 10.527344 12.804688 L 7.113281 9.390625 C 6.863281 9.136719 6.863281 8.730469 7.113281 8.480469 L 8.480469 7.113281 C 8.730469 6.859375 9.140625 6.859375 9.390625 7.113281 L 12.804688 10.527344 L 16.21875 7.113281 C 16.46875 6.859375 16.882813 6.859375 17.128906 7.113281 L 18.496094 8.476563 C 18.746094 8.730469 18.746094 9.136719 18.496094 9.390625 L 15.082031 12.804688 L 18.496094 16.21875 C 18.742188 16.472656 18.742188 16.878906 18.496094 17.132813 Z "/>
</svg>
